<svg t="1621073555964" class="icon" viewBox="0 0 1024 1024" version="1.1" xmlns="http://www.w3.org/2000/svg" p-id="886" width="200" height="200"><path d="M677.76 240.853333a21.333333 21.333333 0 0 0-30.08 0l-112.853333 112.853334-112.853334-112.853334a21.333333 21.333333 0 0 0-30.08 0 16.853333 16.853333 0 0 0 0 26.24l112.853334 109.013334h-97.92a21.333333 21.333333 0 0 0 0 42.666666H512v64h-105.173333a21.333333 21.333333 0 0 0 0 42.666667h106.666666v64a21.333333 21.333333 0 0 0 21.333334 21.333333 21.333333 21.333333 0 0 0 21.333333-21.333333v-64h106.666667a21.333333 21.333333 0 0 0 0-42.666667H554.666667v-64h108.586666a21.333333 21.333333 0 0 0 0-42.666666h-98.346666l112.853333-109.013334a16.853333 16.853333 0 0 0 0-26.24z" fill="#666666" p-id="887"></path><path d="M975.573333 538.88c-50.346667-45.226667-113.493333 4.266667-134.186666 21.333333s-45.226667 39.893333-72.106667 65.706667a1089.493333 1089.493333 0 0 1-118.826667 104.106667A188.586667 188.586667 0 0 1 517.76 768h-110.933333a30.506667 30.506667 0 0 1 14.08-27.52c24.533333-21.333333 49.706667-48.64 49.706666-80 0-44.8-25.6-64-85.333333-64-36.906667 0-104.106667 27.733333-137.813333 45.013333l-14.08 7.04A362.666667 362.666667 0 1 1 897.493333 448a21.333333 21.333333 0 0 0 42.666667 0 405.333333 405.333333 0 1 0-810.666667 0 397.866667 397.866667 0 0 0 60.8 220.586667C42.666667 742.826667 13.44 765.866667 13.44 789.333333v128c0 30.72 33.92 56.106667 73.386667 56.106667h512c86.4 0 126.293333-14.08 162.773333-42.666667s143.786667-124.8 197.12-217.386666c35.84-63.146667 65.28-130.773333 16.853333-174.506667zM921.6 693.333333c-50.773333 88.32-160.426667 181.333333-186.88 202.666667-30.72 24.533333-61.44 33.92-135.893333 33.92h-512c-13.866667 0-30.72-4.48-30.72-13.226667v-123.306666a1601.92 1601.92 0 0 1 180.48-100.053334c11.093333-5.546667 22.613333-10.026667 28.373333-13.013333A373.546667 373.546667 0 0 1 384 640c42.666667 0 42.666667 7.04 42.666667 21.333333s-25.6 39.466667-35.2 48c-24.533333 21.333333-34.346667 46.933333-25.6 70.4a38.613333 38.613333 0 0 0 40.106666 23.04h110.933334c50.133333 0 89.386667 4.053333 157.013333-42.666666a1090.133333 1090.133333 0 0 0 124.16-106.666667c26.026667-24.96 50.773333-47.786667 68.906667-61.866667 55.466667-42.666667 72.106667-28.16 79.146666-21.333333S976.853333 597.333333 921.6 693.333333z" fill="#666666" p-id="888"></path></svg>