<svg t="1621073232793" class="icon" viewBox="0 0 1024 1024" version="1.1" xmlns="http://www.w3.org/2000/svg" p-id="1033" width="200" height="200"><path d="M501.6576 34.13333333a97.96266667 97.96266667 0 0 1 97.86026667 97.82613334A98.0992 98.0992 0 0 1 538.624 222.54933333v27.648h183.0912c17.27146667 0 34.06506667 6.10986667 47.3088 17.06666667l128.9216 107.28106667c20.24106667 16.7936 30.1056 43.48586667 25.6 69.49546666l-22.90346667 132.26666667a74.00106667 74.00106667 0 0 1-96.3584 57.51466667l-12.11733333-4.02773334v227.60106667a148.0704 148.0704 0 0 1-147.968 147.93386667h-295.5264a148.03626667 148.03626667 0 0 1-147.93386667-147.93386667V629.76l-12.288 4.02773333a73.79626667 73.79626667 0 0 1-96.256-57.51466666l-22.86933333-132.26666667a73.89866667 73.89866667 0 0 1 25.6-69.49546667L223.88053333 267.264a74.41066667 74.41066667 0 0 1 47.3088-17.1008h193.536V192.78506667c0-20.48 16.52053333-37.00053333 36.9664-37.00053334a23.89333333 23.89333333 0 0 0 23.89333334-23.82506666 23.89333333 23.89333333 0 0 0-44.50986667-11.9808 37.00053333 37.00053333 0 1 1-63.93173333-37.30773334A98.33813333 98.33813333 0 0 1 501.6576 34.13333333z m-167.45813333 290.03093334H271.1552l-128.88746667 107.17866666 22.86933334 132.33493334 12.25386666-4.02773334a73.89866667 73.89866667 0 0 1 97.34826667 70.144v227.60106667c0 40.82346667 33.1776 73.9328 73.96693333 73.9328h295.5264c40.78933333 0 74.00106667-33.10933333 74.00106667-73.9328V629.76c0-23.72266667 11.43466667-46.1824 30.65173333-60.07466667a74.17173333 74.17173333 0 0 1 66.62826667-10.06933333l12.288 4.02773333 22.86933333-132.3008-128.9216-107.2128H669.01333333c-16.9984 76.93653333-85.504 134.69013333-167.38986666 134.69013334-81.95413333 0-150.4256-57.7536-167.45813334-134.69013334z m257.70666666 0h-180.56533333a97.75786667 97.75786667 0 0 0 90.3168 60.68906666 97.72373333 97.72373333 0 0 0 90.28266667-60.68906666z" fill="#707070" p-id="1034"></path></svg>