<svg t="1621073285897" class="icon" viewBox="0 0 1024 1024" version="1.1" xmlns="http://www.w3.org/2000/svg" p-id="1033" width="200" height="200"><path d="M512 62c148.5 0 274.275 107.71875 303.1875 253.40625l6.1875-0.28125h28.125a112.5 112.5 0 0 1 112.5 112.5v112.5a112.5 112.5 0 0 1-112.5 112.5h-28.125c-2.64375 0-5.2875-0.1125-7.875-0.3375l1.125-3.6c-33.975 108.61875-120.9375 205.14375-219.65625 241.59375a56.25 56.25 0 0 1-54.84375 43.59375h-56.25a56.25 56.25 0 0 1 0-112.5h56.25c14.7375 0 28.125 5.625 38.25 14.9625 80.04375-30.825 153.84375-112.66875 182.5875-204.4125l1.35-3.375A84.09375 84.09375 0 0 1 737 568.25V399.5c0-23.5125 9.61875-44.83125 25.14375-60.13125l0.61875 3.76875C745.71875 214.83125 638.73125 118.25 512 118.25 386.45 118.25 280.30625 213.03125 261.74375 339.48125 277.38125 354.725 287 376.04375 287 399.5v168.75a84.375 84.375 0 0 1-84.375 84.375H174.5a112.5 112.5 0 0 1-112.5-112.5v-112.5a112.5 112.5 0 0 1 112.5-112.5h28.125c2.1375 0 4.21875 0.05625 6.3 0.225C237.725 169.71875 363.5 62 512 62zM202.625 371.375H174.5a56.25 56.25 0 0 0-56.25 56.25v112.5a56.25 56.25 0 0 0 56.25 56.25h28.125A28.125 28.125 0 0 0 230.75 568.25V399.5a28.125 28.125 0 0 0-28.125-28.125z m646.875 0h-28.125a28.125 28.125 0 0 0-28.125 28.125v168.75a28.125 28.125 0 0 0 28.125 28.125h28.125a56.25 56.25 0 0 0 56.25-56.25v-112.5a56.25 56.25 0 0 0-56.25-56.25z" fill="#515151" p-id="1034"></path></svg>