<svg t="1621073422740" class="icon" viewBox="0 0 1024 1024" version="1.1" xmlns="http://www.w3.org/2000/svg" p-id="916" width="200" height="200"><path d="M833.17226993 197.32157862l-58.93104227 0 0-75.76361005c0-17.33193677-14.10104498-31.43298174-31.43298175-31.43298175l-2.09980701 0c-17.32920859 0-31.42752457 14.09968048-31.42752457 31.43298174l0 75.76361006-391.62291723 0 0-75.76361005c0-17.33193677-14.09968048-31.43298174-31.43298175-31.43298175l-2.099807 0c-17.33193677 0-31.43298174 14.09968048-31.43298176 31.43298174l0 75.76361006-61.8699537 0c-54.97156164 0-99.69377152 44.72220986-99.69377152 99.6937715L91.12850054 834.17305548c0 54.97565515 44.72220986 99.70195853 99.69377153 99.70195853l642.34863336 0c54.97565515 0 99.70059402-44.72630337 99.70059402-99.70195853l0-537.15634086C932.87013494 242.04515298 888.14383157 197.32157862 833.17226993 197.32157862zM870.00690044 868.77007419l-714.89499498 0L155.11190546 423.57410187l714.89499498 0L870.00690044 868.77007419zM870.00690044 357.35581497l-714.89499498 0 0-97.16963736 714.89499498 0L870.00690044 357.35581497zM426.92437933 810.0041243c5.59812141 5.59812141 12.9331203 8.39513535 20.26812003 8.39513534 4.96777012 0 9.92189603-1.31527853 14.34936456-3.88170977 2.54323636-1.32073655 4.93229553-3.04124168 7.06621262-5.17515875L758.69392184 519.25927481c11.19351462-11.19487912 11.19351462-29.34408994 0-40.53760373-11.19487912-11.19351462-29.34408994-11.19351462-40.53896822 0L447.43672626 749.44126294 310.38166684 612.38483902c-11.19487912-11.19351462-29.34272543-11.19351462-40.53760373 0-11.19351462 11.19487912-11.19351462 29.34272543 0 40.53760373L426.92437933 810.0041243z" fill="#8a8a8a" p-id="917"></path></svg>