<svg t="1621068600300" class="icon" viewBox="0 0 1024 1024" version="1.1" xmlns="http://www.w3.org/2000/svg" p-id="2583" width="200" height="200"><path d="M793.70666667 923.2h-565.33333334c-44.48 0-80.74666667-39.89333333-80.74666666-88.96V524.26666667c0-12.16 9.81333333-21.97333333 21.97333333-21.97333334s21.97333333 9.81333333 21.97333333 21.97333334v310.08c0 24.85333333 16.53333333 45.01333333 36.8 45.01333333h565.33333334c12.16 0 21.97333333 9.81333333 21.97333333 21.97333333s-9.81333333 21.86666667-21.97333333 21.86666667z" fill="#333333" p-id="2584"></path><path d="M669.44 541.22666667c-29.22666667 0-57.06666667-10.24-79.25333333-28.58666667-22.18666667 18.34666667-49.92 28.48-79.04 28.58666667h-0.32c-29.12-0.10666667-56.74666667-10.24-78.82666667-28.58666667-22.18666667 18.34666667-50.13333333 28.58666667-79.25333333 28.58666667-29.22666667 0-57.06666667-10.24-79.25333334-28.58666667-22.18666667 18.34666667-50.02666667 28.58666667-79.25333333 28.58666667h-0.10666667c-64.10666667-0.21333333-117.86666667-49.17333333-125.12-113.70666667l-0.21333333-1.92 2.13333333-32.32c0.42666667-4.90666667 1.49333333-9.81333333 3.41333334-14.4l0.21333333-0.53333333 79.14666667-181.65333334c1.81333333-4.69333333 15.78666667-38.29333333 40.21333333-64.10666666 19.73333333-20.90666667 50.66666667-31.89333333 89.38666667-31.89333334 5.54666667 0 9.70666667 0.21333333 11.62666666 0.42666667l434.34666667-0.10666667c3.09333333-0.21333333 7.57333333-0.32 9.81333333-0.32 26.98666667 0 64.42666667 5.54666667 89.38666667 31.89333334 23.78666667 25.06666667 37.33333333 56.96 40.21333333 64L948.05333333 378.66666667c1.92 4.58666667 3.09333333 9.49333333 3.52 14.61333333l2.13333334 26.77333333-0.21333334 2.02666667c-7.36 69.12-59.94666667 119.25333333-125.22666666 119.25333333-29.12 0-56.96-10.24-79.25333334-28.58666666-22.4 18.24-50.24 28.48-79.57333333 28.48z m-79.25333333-94.18666667l16.96 20.48c15.57333333 18.88 38.29333333 29.65333333 62.29333333 29.65333333 24.10666667 0 46.82666667-10.77333333 62.29333333-29.65333333l16.96-20.48 16.96 20.48c15.57333333 18.88 38.29333333 29.65333333 62.29333334 29.65333333 41.70666667 0 75.62666667-32.64 81.28-77.97333333l-1.81333334-22.61333333c0-0.64-0.10666667-0.96-0.21333333-1.06666667L828.05333333 213.33333333l-0.10666666-0.32c-0.53333333-1.17333333-12.05333333-29.97333333-31.46666667-50.34666666-14.93333333-15.78666667-42.45333333-18.13333333-57.49333333-18.13333334-3.30666667 0-5.76 0.10666667-6.72 0.10666667l-0.85333334 0.10666667-438.50666666 0.10666666-0.96-0.10666666s-3.52-0.32-8.85333334-0.32c-18.34666667 0-43.30666667 3.2-57.49333333 18.13333333-16.53333333 17.49333333-28.26666667 42.13333333-31.36 50.24l-0.32 0.85333333-79.14666667 181.65333334c-0.10666667 0.32-0.21333333 0.74666667-0.21333333 1.06666666l-1.81333333 27.84c5.54666667 41.49333333 40.21333333 72.64 81.28 72.85333334 24 0 46.72-10.77333333 62.18666666-29.65333334l16.96-20.48 16.96 20.48c15.57333333 18.77333333 38.29333333 29.65333333 62.4 29.65333334s46.82666667-10.77333333 62.4-29.54666667l16.96-20.48 16.96 20.48c15.46666667 18.66666667 38.08 29.44 61.97333334 29.54666667h0.21333333c23.89333333 0 46.61333333-10.77333333 62.08-29.54666667l17.06666667-20.48z m142.72-302.50666667h-0.32 0.32z" fill="#333333" p-id="2585"></path><path d="M760.64 836.26666667c-5.65333333 0-11.30666667-2.13333333-15.57333333-6.4l-97.81333334-97.81333334c-8.64-8.53333333-8.64-22.50666667 0-31.14666666l97.81333334-97.81333334c8.53333333-8.64 22.50666667-8.64 31.14666666 0 8.64 8.53333333 8.64 22.50666667 0 31.14666667l-82.24 82.24 82.24 82.24c8.64 8.53333333 8.64 22.50666667 0 31.14666667-4.26666667 4.26666667-9.92 6.4-15.57333333 6.4z" fill="#333333" p-id="2586"></path><path d="M664.96 738.88c-12.05333333 0-21.97333333-9.81333333-21.97333333-21.86666667 0-12.16 9.81333333-21.97333333 21.86666666-22.08l266.24-0.96h0.10666667c12.16 0 21.97333333 9.81333333 21.97333333 21.86666667 0 12.16-9.81333333 21.97333333-21.86666666 22.08l-266.34666667 0.96z" fill="#333333" p-id="2587"></path></svg>