<?xml version="1.0" standalone="no"?><!DOCTYPE svg PUBLIC "-//W3C//DTD SVG 1.1//EN" "http://www.w3.org/Graphics/SVG/1.1/DTD/svg11.dtd"><svg t="1621056761466" class="icon" viewBox="0 0 1024 1024" version="1.1" xmlns="http://www.w3.org/2000/svg" p-id="10666" xmlns:xlink="http://www.w3.org/1999/xlink" width="200" height="200"><defs><style type="text/css"></style></defs><path d="M853.33504 0 170.66496 0C76.416 0 0 76.416 0 170.67008l0 682.66496C0 947.584 76.416 1024 170.66496 1024l682.66496 0C947.584 1024 1024 947.584 1024 853.33504L1024 170.67008C1024 76.416 947.584 0 853.33504 0zM853.90336 813.6704l-40.22784 0 0-120.66304 0-40.22784 0-120.66816 40.22784 0L853.90336 813.6704zM290.76992 853.90336 129.87392 853.90336 129.87392 294.54336l-40.22272-0.62976 0-43.37152 80.44544 0 80.45056 0 0 406.08768 402.23232-406.08768 224.56832 0L290.76992 853.90336z" p-id="10667" fill="#bfbfbf"></path></svg>