<svg t="1621057437385" class="icon" viewBox="0 0 1157 1024" version="1.1" xmlns="http://www.w3.org/2000/svg" p-id="11581" width="200" height="200"><path d="M681.271652 45.367652l21.058783 5.342609c46.035478 11.753739 90.156522 29.96313 131.072 54.182956l18.743652 11.130435-8.904348 19.901218a100.797217 100.797217 0 0 0 20.747131 113.129739 100.262957 100.262957 0 0 0 71.457391 29.651478c14.380522 0 28.582957-2.982957 41.672348-8.815304l19.901217-8.904348 11.130435 18.743652c24.219826 40.870957 42.473739 84.947478 54.182956 130.982956l5.342609 21.103305-20.301913 7.791304A100.841739 100.841739 0 0 0 982.016 534.26087c0 42.25113 25.644522 79.426783 65.357913 94.653217l20.301913 7.791304-5.342609 21.103305a493.434435 493.434435 0 0 1-54.316521 130.982956l-11.130435 18.699131-19.856696-8.815305a102.043826 102.043826 0 0 0-113.174261 20.791652 100.841739 100.841739 0 0 0-20.658087 113.12974l8.815305 19.901217-18.699131 11.130435c-40.826435 24.219826-84.947478 42.473739-130.982956 54.182956l-21.058783 5.342609-7.835826-20.301913A100.841739 100.841739 0 0 0 578.782609 937.494261a101.064348 101.064348 0 0 0-94.697739 65.402435l-7.835827 20.257391-21.058782-5.342609a498.465391 498.465391 0 0 1-131.027478-54.182956l-18.743653-11.130435 8.904348-19.945739a100.797217 100.797217 0 0 0-20.74713-113.085218 100.262957 100.262957 0 0 0-71.457391-29.651478c-14.380522 0-28.582957 2.982957-41.672348 8.815305l-19.901218 8.904347-11.130434-18.743652a496.328348 496.328348 0 0 1-54.182957-130.982956l-5.342609-21.058783 20.301913-7.835826A100.886261 100.886261 0 0 0 175.549217 534.26087a101.064348 101.064348 0 0 0-65.357913-94.653218l-20.301913-7.835826 5.342609-21.058783a493.30087 493.30087 0 0 1 54.316522-130.982956l11.130435-18.69913 19.856695 8.815304a101.954783 101.954783 0 0 0 113.174261-20.791652c29.829565-29.829565 37.977043-74.262261 20.702609-113.129739l-8.859826-19.901218 18.69913-11.130435a495.88313 495.88313 0 0 1 130.982957-54.182956l21.103304-5.342609 7.791304 20.301913A100.841739 100.841739 0 0 0 578.782609 131.027478a101.064348 101.064348 0 0 0 94.697739-65.402435l7.791304-20.257391z m22.795131 76.399305A143.003826 143.003826 0 0 1 578.782609 194.960696a142.914783 142.914783 0 0 1-125.328696-73.193739 428.477217 428.477217 0 0 0-77.734956 32.144695 142.914783 142.914783 0 0 1-36.819479 140.377044 142.914783 142.914783 0 0 1-101.732174 42.073043c-13.178435 0-26.134261-1.78087-38.644869-5.209043a425.405217 425.405217 0 0 0-32.233739 77.824A143.048348 143.048348 0 0 1 239.482435 534.26087a142.914783 142.914783 0 0 1-73.193739 125.328695c8.147478 26.89113 18.921739 52.98087 32.189217 77.779478a144.250435 144.250435 0 0 1 140.332522 36.908522 144.962783 144.962783 0 0 1 36.774956 140.243478c24.84313 13.312 50.93287 24.086261 77.913044 32.23374A143.048348 143.048348 0 0 1 578.782609 873.561043a142.914783 142.914783 0 0 1 125.328695 73.19374 429.590261 429.590261 0 0 0 77.734957-32.144696 142.914783 142.914783 0 0 1 36.819478-140.377044c27.158261-27.158261 63.22087-42.073043 101.732174-42.073043 13.04487 0 26.045217 1.78087 38.600348 5.209043a426.073043 426.073043 0 0 0 32.278261-77.824A142.914783 142.914783 0 0 1 918.082783 534.26087c0-52.802783 28.137739-99.995826 73.193739-125.284174a429.056 429.056 0 0 0-32.189218-77.779479 144.294957 144.294957 0 0 1-140.332521-36.953043 144.962783 144.962783 0 0 1-36.774957-140.243478 430.525217 430.525217 0 0 0-77.913043-32.233739zM578.782609 383.554783A150.928696 150.928696 0 0 1 729.533217 534.26087 150.928696 150.928696 0 0 1 578.782609 684.966957 150.928696 150.928696 0 0 1 428.076522 534.26087 150.928696 150.928696 0 0 1 578.782609 383.554783z m0 54.182956A96.612174 96.612174 0 0 0 482.259478 534.26087 96.612174 96.612174 0 0 0 578.782609 630.784 96.612174 96.612174 0 0 0 675.305739 534.26087 96.612174 96.612174 0 0 0 578.782609 437.737739z" p-id="11582" fill="#8a8a8a"></path></svg>