<svg t="1621073737539" class="icon" viewBox="0 0 1024 1024" version="1.1" xmlns="http://www.w3.org/2000/svg" p-id="1327" width="200" height="200"><path d="M877.697 661.333c29.455 0 53.333 23.878 53.333 53.334a53.333 53.333 0 0 1-9.934 30.999l-46.43 65 46.43 65.001c17.12 23.969 11.569 57.278-12.4 74.399a53.333 53.333 0 0 1-31 9.934H700.97c-29.455 0-53.333-23.878-53.333-53.333a53.333 53.333 0 0 1 9.934-31l46.429-65-46.429-65.001c-17.12-23.969-11.569-57.278 12.4-74.398a53.333 53.333 0 0 1 31-9.935h176.726zM512 85.333c235.641 0 426.667 191.026 426.667 426.667 0 29.23-2.94 57.772-8.538 85.349l-65.56-0.006c6.6-27.369 10.098-55.947 10.098-85.343 0-200.295-162.372-362.667-362.667-362.667-200.295 0-362.667 162.372-362.667 362.667 0 200.295 162.372 362.667 362.667 362.667 29.396 0 57.974-3.498 85.343-10.099l0.006 65.56c-27.577 5.6-56.12 8.539-85.349 8.539C276.359 938.667 85.333 747.64 85.333 512 85.333 276.359 276.36 85.333 512 85.333z m344.96 640H721.685l60.965 85.334L721.664 896h135.317l-60.964-85.333 60.943-85.334zM596.04 318.706l45.254 45.255L557.227 448H640v64h-96v42.667h96v64h-96V704h-64v-85.333h-96v-64h96V512h-96v-64h82.752l-84.046-84.04 45.255-45.254L512 402.752l84.04-84.046z" p-id="1328"></path></svg>