<?xml version="1.0" standalone="no"?><!DOCTYPE svg PUBLIC "-//W3C//DTD SVG 1.1//EN" "http://www.w3.org/Graphics/SVG/1.1/DTD/svg11.dtd"><svg t="1621067131898" class="icon" viewBox="0 0 1024 1024" version="1.1" xmlns="http://www.w3.org/2000/svg" p-id="3443" xmlns:xlink="http://www.w3.org/1999/xlink" width="200" height="200"><defs><style type="text/css"></style></defs><path d="M178.8 567h170.6V433.4h-43.6v90h-127z" p-id="3444"></path><path d="M960.2 174.7H445.7v144.2H235.2L64 537.7V794h119.8c7.4 48.4 49.1 85.6 99.5 85.6s92.1-37.2 99.5-85.6h251.6c7.4 48.4 49.1 85.6 99.5 85.6s92.1-37.2 99.5-85.6h126.7V174.7zM283.3 835.9c-31.5 0-57.1-25.6-57.1-57.1s25.6-57.1 57.1-57.1 57.1 25.6 57.1 57.1-25.6 57.1-57.1 57.1z m162.4-85.6h-65.8C367.6 708.6 329 678 283.3 678c-45.7 0-84.3 30.6-96.6 72.3h-79.1V552.7l148.8-190.3h189.3v387.9zM734 835.9c-31.5 0-57.1-25.6-57.1-57.1s25.6-57.1 57.1-57.1 57.1 25.6 57.1 57.1c0.1 31.5-25.6 57.1-57.1 57.1z m182.6-85.6h-85.9c-12.4-41.7-51-72.3-96.7-72.3s-84.3 30.6-96.6 72.3h-148v-532h427.2v532z" p-id="3445"></path></svg>