<?xml version="1.0" standalone="no"?><!DOCTYPE svg PUBLIC "-//W3C//DTD SVG 1.1//EN" "http://www.w3.org/Graphics/SVG/1.1/DTD/svg11.dtd"><svg t="1621067096359" class="icon" viewBox="0 0 1024 1024" version="1.1" xmlns="http://www.w3.org/2000/svg" p-id="3148" xmlns:xlink="http://www.w3.org/1999/xlink" width="200" height="200"><defs><style type="text/css"></style></defs><path d="M169.225681 664.781662c-6.246261 0-12.518105-2.511193-18.127869-7.240915l-89.149413-72.652693c-9.242502-7.814989-13.640672-19.428491-11.652388-30.468942 1.733481-9.688663 8.375761-17.49035 17.758456-20.881586l111.599727-40.272215c10.92584-3.926426 23.036669-0.509606 30.621415 8.567119 6.246261 7.470135 8.936533 17.771759 7.189749 27.549449l-23.151279 111.178125C191.688275 655.130861 181.820534 664.781662 169.225681 664.781662z" p-id="3149"></path><path d="M847.517031 491.658719c-7.215332 0-13.053294-5.838985-13.053294-13.054317 0-135.860271-91.420129-255.733429-222.307132-291.517423-6.961552-1.899256-11.05273-9.076726-9.153474-16.037255 1.912559-6.960529 9.165754-11.001565 16.037255-9.153474 142.209886 38.882566 241.531985 169.107489 241.531985 316.709175C860.572372 485.819734 854.733387 491.658719 847.517031 491.658719z" p-id="3150"></path><path d="M549.880237 176.887686c-0.2415 0-0.485047 0-0.727571-0.025583-5.596462-0.305969-11.230786-0.459464-16.878412-0.459464-7.215332 0-13.054317-5.838985-13.054317-13.054317s5.838985-13.054317 13.054317-13.054317c6.131651 0 12.225439 0.178055 18.307971 0.51063 7.202029 0.382717 12.709463 6.53995 12.313443 13.743002C562.526255 171.494862 556.764018 176.887686 549.880237 176.887686z" p-id="3151"></path><path d="M521.298272 893.704468c-102.037954 0-200.519919-36.905538-277.277094-103.911628-10.861372-9.486048-11.982916-25.981744-2.498914-36.843116 9.497305-10.849092 26.007327-11.983939 36.843116-2.49789 67.24759 58.706053 153.516396 91.036389 242.932891 91.036389 203.872271 0 369.729739-165.857469 369.729739-369.729739 0-203.872271-165.856445-369.742019-369.729739-369.742019-203.858968 0-369.716436 165.869748-369.716436 369.742019 0 15.820314 1.006933 31.743982 2.996241 47.321772 1.835811 14.303774-8.273431 27.383674-22.577205 29.207206-14.252609 1.899256-27.383674-8.286734-29.207206-22.577205-2.281973-17.784038-3.429099-35.925211-3.429099-53.951773 0-232.671177 189.275831-421.960311 421.933705-421.960311S943.246303 239.086283 943.246303 471.75746C943.246303 704.416358 753.956146 893.704468 521.298272 893.704468z" p-id="3152"></path><path d="M465.970152 468.010113l-93.228311-156.218948c-3.849678-6.845918-5.78782-13.500479-5.78782-19.925818 0-6.42534 2.792603-11.57564 8.363482-15.425318 5.570879-4.28356 12.110829-6.437619 19.606547-6.437619 7.496741 0 14.240329 5.1503 20.25737 15.437597l104.792695 176.795589 104.790648-176.795589c6.42534-10.708899 12.95301-16.075117 19.60757-16.075117 6.628978 0 13.168927 2.14178 19.60757 6.42534 6.844895 4.295839 10.287297 9.31925 10.287297 15.107069 0 5.78782-2.369977 12.761652-7.075139 20.894889l-93.217055 156.218948 74.565253 0c17.147542 0 25.726941 8.579399 25.726941 25.725918 0 16.71366-8.579399 25.063839-25.726941 25.063839l-102.217033 0 0 40.501436 102.217033 0c17.147542 0 25.726941 8.580422 25.726941 25.726941 0 16.712637-8.579399 25.062815-25.726941 25.062815l-102.217033 0 0 84.866876c0 11.57564-1.721201 19.72218-5.136997 24.425296-3.442402 4.730745-10.505261 7.076162-21.213137 7.076162-10.722202 0-17.911952-2.345418-21.545712-7.076162-3.64604-4.703115-5.456269-12.849656-5.456269-24.425296l0-84.866876-100.941993 0c-17.146519 0-25.713638-8.566096-25.713638-25.712615 0-9.42158 2.026146-15.96153 6.106068-19.60757 4.066619-3.632737 10.172687-5.469572 18.319228-5.469572l102.229313 0 0-40.501436-100.941993 0c-17.146519 0-25.713638-8.567119-25.713638-25.713638 0-9.42158 2.026146-15.960507 6.106068-19.606547 4.066619-3.63376 10.172687-5.469572 18.319228-5.469572L465.970152 468.011136z" p-id="3153"></path></svg>