<svg t="1621061797961" class="icon" viewBox="0 0 1024 1024" version="1.1" xmlns="http://www.w3.org/2000/svg" p-id="1485" width="200" height="200"><path d="M950.33 351.38L779.25 118.19a49.693 49.693 0 0 0-40.07-20.3H322.23a49.72 49.72 0 0 0-36.96 16.47L76.79 346.22c-16.28 18.11-17.05 45.34-1.81 64.33l398.74 496.96a49.683 49.683 0 0 0 38.76 18.6c15.07 0 29.33-6.84 38.76-18.59l397.77-495.63c14.09-17.55 14.63-42.37 1.32-60.51zM512.49 797L178.94 381.28l165.44-183.99H714l133.62 182.13L512.49 797z" p-id="1486" fill="#8a8a8a"></path><path d="M646.49 406.81c-21.33-17.28-52.63-13.99-69.9 7.34l-67.45 83.29-60.41-81.58c-16.33-22.06-47.46-26.7-69.52-10.37s-26.7 47.46-10.37 69.52l98.59 133.15a49.706 49.706 0 0 0 38.86 20.11c0.36 0.01 0.72 0.01 1.08 0.01 14.97 0 29.17-6.76 38.62-18.42l107.84-133.15c17.28-21.33 13.99-52.63-7.34-69.9z" p-id="1487" fill="#8a8a8a"></path></svg>