<svg t="1621061906864" class="icon" viewBox="0 0 1024 1024" version="1.1" xmlns="http://www.w3.org/2000/svg" p-id="2051" width="200" height="200"><path d="M520.83825778 184.23239111l17.70040889 0.03413334 30.78712888 0.12288 34.29262223 0.19342222c1.52234667 0.01137778 3.04241778 0.12174222 4.54883555 0.33450666 104.78933333 14.80248889 172.68736 61.51964445 201.81674667 135.94168889 24.6784 63.04995555 19.79733333 141.54296889-8.89287111 231.58897778-23.54062222 73.88728889-62.82581333 154.14044445-112.05176889 233.40600889l-3.59992889 5.76625778-3.62496 5.74350222-3.64544 5.71847111c-0.60984889 0.95118222-1.21969778 1.90008889-1.83182222 2.84899555l-3.67502222 5.67637334a1453.39733333 1453.39733333 0 0 1-5.54552889 8.45368889l-3.71484445 5.59331555-3.72622222 5.55576889-3.7376 5.51480889-3.74442666 5.47271111-3.75125334 5.42833778c-1.87733333 2.70222222-3.75466667 5.38737778-5.63427556 8.05205333l-3.75808 5.30545778c-0.62577778 0.87950222-1.25155555 1.75672889-1.8784711 2.63281778l-3.75580445 5.2224c-0.62577778 0.86698667-1.25155555 1.72942222-1.87733333 2.59185778l-3.74897778 5.13706666c-0.62350222 0.85105778-1.24814222 1.69870222-1.87164444 2.54520889l-3.73873778 5.04490667c-0.62236445 0.83512889-1.24359111 1.66798222-1.86595556 2.49742222l-3.72167111 4.94705778-3.71029333 4.87879111c-0.61781333 0.80782222-1.23335111 1.61109333-1.85002667 2.41208889l-3.6864 4.77184-3.66933333 4.69674666-3.64999112 4.61937778-3.62723555 4.54087112-3.60448 4.4589511a889.17333333 889.17333333 0 0 1-14.13688889 16.96654223l-3.45543111 4.01180444a680.87239111 680.87239111 0 0 1-11.79875555 13.26648889 34.01955555 34.01955555 0 0 1-6.28849778 5.38737778c-95.75537778 63.60177778-177.74933333 59.32373333-237.13223112 2.87744-20.32184889-19.31719111-36.22001778-43.23783111-47.97098666-68.91406222l-1.22311111-2.69880889-1.17873778-2.65102223-1.13095111-2.6055111-1.08316444-2.56-0.52337778-1.26293334-1.00693334-2.49059556c-1.47228445-3.70232889-2.76935111-7.25219555-3.86616888-10.6541511l-0.7020089-2.24597334c-3.69436445-12.23566222-4.64213333-22.50638222-1.71349333-31.07498666l2.93546667-9.19324445 2.02069333-6.41706667 1.97632-6.3488 1.92967111-6.28508444 1.88416-6.21909334 1.83978667-6.15310222 1.79427555-6.08711111c0.29582222-1.00920889 0.58823111-2.01614222 0.88064-3.01966222l1.7260089-5.9904 1.68277333-5.92554667c0.27648-0.98190222 0.55068445-1.96152889 0.82375111-2.93888l1.61564444-5.82769778 1.57127112-5.76398222 1.52689777-5.70026666 1.48366223-5.63541334 1.43928888-5.57169778 1.39605334-5.50684444 1.35395555-5.44426666 1.30844445-5.3816889 1.26634666-5.31683555c0.20707555-0.88064 0.41301333-1.75900445 0.61667556-2.63509333l1.20263111-5.2224 1.16053333-5.16096 1.11616-5.09724445c0.18204445-0.84423111 0.36408889-1.68504889 0.54272-2.52472889l1.05358222-5.00394666 1.01262223-4.94136889 0.96938667-4.87879111c0.15815111-0.80782222 0.31402667-1.61336889 0.46876444-2.41664l0.90794666-4.78549334 0.8658489-4.72519111c0.14108445-0.78279111 0.28103111-1.56216889 0.41756444-2.33927111l0.80440889-4.63303111 0.76344889-4.57045333c0.12515555-0.75662222 0.24689778-1.51096889 0.36636444-2.26304l0.70314667-4.47943112 0.66104889-4.41912888 0.62236444-4.35768889c0.20024889-1.44270222 0.39367111-2.87516445 0.58026667-4.29852445l0.54158222-4.23708444c0.08760889-0.70087111 0.17180445-1.39946667 0.256-2.09578667l0.48128-4.1472c0.07736889-0.68608 0.15246222-1.36988445 0.22641778-2.05141333l0.42097777-4.05731556c0.06826667-0.67128889 0.13312-1.34030222 0.19683556-2.00590222l0.36408889-3.96856889c0.11377778-1.31299555 0.22186667-2.61575111 0.32426667-3.90826667l0.28444444-3.84910222c0.04551111-0.63715555 0.08760889-1.27089778 0.12856889-1.90350222l0.22755555-3.76035556c0.03413333-0.62236445 0.06826667-1.24131555 0.09898667-1.8579911l0.17066667-3.67274667c0.02503111-0.60757333 0.04778667-1.21287111 0.06940444-1.81475556l0.11377778-3.584c0.06144-2.37112889 0.09898667-4.70357333 0.11036444-6.99619555l0.00455112-1.72942222c-0.00227555-6.27029333-0.18204445-12.11278222-0.52565334-17.55477334l-0.2048-2.92750222-0.23552-2.85013334c-0.04209778-0.46762667-0.08533333-0.93297778-0.12970666-1.39491555l-0.28330667-2.73408-0.31288889-2.65671111c-2.74090667-21.82599111-8.62321778-35.79790222-16.28842666-44.36764444-2.58161778-2.88426667-5.21102222-4.96753778-8.71537778-7.10769778l-0.50062222-0.30037334-6.10076445-3.56124444c-4.69219555-2.83306667-7.84270222-5.20647111-11.53706667-9.66200889l-0.67128888-0.83285333-0.52337778-0.54954667a182.06947555 182.06947555 0 0 1-49.68903112-123.23271111l-0.00910222-1.76583111c0-100.58979555 81.59687111-182.13319111 182.25265778-182.13319111l78.336-0.00227556 3.54986667-0.10808889 4.91178667-0.09102222 11.33454222-0.10467555 15.07100444-0.04551112h10.21724444z m7.77102222 68.01635556h-26.02439111l-12.23111111 0.07281778-6.83804445 0.08305777-3.41447111 0.07395556-2.82168889 0.10012444-0.81464888 0.01024h-79.04597334c-63.07271111 0-114.20216889 51.09646222-114.20216889 114.12707556 0 29.50940445 11.43808 57.86737778 31.76903111 78.98680889l0.27534222 0.28444444 2.33699556 1.36305778 1.82385778 1.08316444 1.72259556 1.06496c8.19086222 5.15299555 15.46695111 11.04213333 22.50069333 18.90531556 22.88071111 25.57724445 35.28248889 64.28103111 35.29841777 119.79093333 0.00113778 5.08131555-0.10126222 10.30144-0.30833777 15.66378667l-0.17521778 4.04935111c-0.09784889 2.03662222-0.21048889 4.09486222-0.33792 6.17244445l-0.27420445 4.18133333c-0.14791111 2.10488889-0.31061333 4.22912-0.48696888 6.37496889l-0.37546667 4.31672888-0.41528889 4.37134223a575.84981333 575.84981333 0 0 1-0.69859556 6.65941333l-0.5165511 4.50787556-0.55751112 4.56248888c-0.09557333 0.76572445-0.19342222 1.53372445-0.29354666 2.30286223l-0.61781334 4.64668444c-0.31971555 2.33699555-0.65536 4.69447111-1.00579555 7.07356445l-0.72135111 4.78549333c-0.24803555 1.60426667-0.50176 3.21763555-0.76231112 4.84124445l-0.80554666 4.89813333a797.41155555 797.41155555 0 0 1-0.84650667 4.95388444l-0.88746667 5.01077333a853.72017778 853.72017778 0 0 1-0.93070222 5.06766223l-0.9728 5.12455111-1.01489778 5.18257778a936.04977778 936.04977778 0 0 1-0.52337777 2.61233778l-1.07861333 5.2679111-1.12071112 5.32707556-1.16394666 5.38396444a1068.2368 1068.2368 0 0 1-1.82613334 8.18517334l-1.27089778 5.5296c-0.21617778 0.92728889-0.43235555 1.85685333-0.65194666 2.78755556l-1.33688889 5.61834666-1.37898667 5.67751111-0.70656 2.86151111-1.44497778 5.76512-1.4893511 5.82542222-1.53258667 5.88572445-1.57696 5.94602667c-0.26624 0.99555555-0.53475555 1.99452445-0.80554667 2.99463111l-1.64295111 6.03591111-1.68732445 6.09621333-1.73283555 6.15651556-1.77720889 6.21795555-1.82044444 6.27825778-1.86709334 6.33969778c-0.63032889 2.12309333-1.26748445 4.25756445-1.91146666 6.40113778l-1.95697778 6.46257778-2.00248889 6.52515555-2.048 6.58773333c-0.69063111 2.20501333-1.38808889 4.42140445-2.09351111 6.64803556l-0.47104 1.47683556 0.35953778 1.09112888c1.49617778 4.48512 3.4816 9.59601778 5.85955555 14.91171556l0.65763556 1.45408c8.39338667 18.34325333 19.59253333 35.19146667 32.98417777 47.9232 15.80828445 15.02435555 33.68504889 23.48487111 54.60195556 24.576 25.63072 1.33802667 56.39623111-8.21134222 92.80512-31.45614222l1.69301334-1.08999112 1.81134222-2.01841777a629.40842667 629.40842667 0 0 0 3.17667555-3.58855111l3.21877333-3.69095112a717.66812445 717.66812445 0 0 0 3.25745778-3.7888l3.29500445-3.88664888c1.10364445-1.31185778 2.21411555-2.63850667 3.32913777-3.98108445l3.36327112-4.07096889 3.39285333-4.16085333 3.42243555-4.24618667c0.57230222-0.71452445 1.14574222-1.4336 1.72145778-2.15495111l3.46112-4.37134222a1029.14275555 1029.14275555 0 0 0 1.73966222-2.21525333l3.49525334-4.48967112 3.51573333-4.56590222c0.58709333-0.76686222 1.17532445-1.536 1.76469333-2.30968888l3.54190223-4.6751289c0.59164445-0.78506667 1.18442667-1.57240889 1.77720889-2.36316444l3.56465778-4.77866666 3.57603555-4.84352 3.58513778-4.90609778c0.59847111-0.82261333 1.19694222-1.64864 1.79541333-2.47580445l3.59651556-4.99598222 3.60106666-5.05287111c0.60074667-0.84650667 1.20035555-1.69528889 1.80110222-2.54748444l3.60448-5.13137778c1.20035555-1.72032 2.40071111-3.44746667 3.60220445-5.18371556l3.59992889-5.23036444c0.59960889-0.87608889 1.19921778-1.75331555 1.79768889-2.63281778l3.59196444-5.29749334 3.584-5.33731555c1.19239111-1.78631111 2.38364445-3.57831111 3.57262223-5.37713778l3.56124444-5.41240889c0.59164445-0.90567111 1.18442667-1.81134222 1.77493333-2.71928888l3.53848889-5.46133334c0.58936889-0.91363555 1.17646222-1.82727111 1.76355556-2.74204444l3.51118222-5.50684445a1356.00355555 1356.00355555 0 0 0 5.22695111-8.30464l1.70439111-2.73749333c46.48049778-74.84416 83.37863111-150.2208 105.02940444-218.17685334l1.4392889-4.57955555c0.70769778-2.28124445 1.39605333-4.55111111 2.06734222-6.80846222l1.31640888-4.49991111c20.0192-69.50456889 22.272-127.54716445 5.53870223-170.29802667-19.09873778-48.79246222-64.16384-80.51256889-143.09262223-92.65720889l-2.6771911-0.40277333-26.01756445-0.14677333-46.21312-0.17521778z m274.82453333-104.63687112c28.18730667 0 51.03729778 22.8352 51.03729778 51.00430223 0 28.16910222-22.84999111 51.00430222-51.03729778 51.00430222s-51.03843555-22.8352-51.03843555-51.00430222c0-28.16910222 22.85112889-51.00430222 51.03843555-51.00430223zM257.72145778 1.13777778c50.59356445 0 91.60704 40.98616889 91.60704 91.5456 0 50.56056889-41.01347555 91.5456-91.60704 91.5456-50.59242667 0-91.60590222-40.98503111-91.60590223-91.5456C166.11555555 42.12394667 207.12903111 1.13777778 257.72145778 1.13777778z m410.91982222 41.84974222c34.69198222 0 62.81671111 28.10538667 62.81671111 62.77461333s-28.12472889 62.77461333-62.81671111 62.77461334-62.81671111-28.10538667-62.81671111-62.77461334 28.12472889-62.77461333 62.81671111-62.77461333zM477.57653333 1.13777778c40.47416889 0 73.28426667 32.78961778 73.28426667 73.23648 0 40.448-32.81009778 73.23761778-73.28426667 73.23761777-40.47416889 0-73.28426667-32.78961778-73.28426666-73.23761777S437.10236445 1.13777778 477.57653333 1.13777778z" fill="#8a8a8a" p-id="2052"></path></svg>